<?xml version="1.0" encoding="utf-8" standalone="no"?>
<!DOCTYPE svg PUBLIC "-//W3C//DTD SVG 1.1//EN"
  "http://www.w3.org/Graphics/SVG/1.1/DTD/svg11.dtd">
<!-- Created with matplotlib (https://matplotlib.org/) -->
<svg height="288pt" version="1.1" viewBox="0 0 576 288" width="576pt" xmlns="http://www.w3.org/2000/svg" xmlns:xlink="http://www.w3.org/1999/xlink">
 <defs>
  <style type="text/css">
*{stroke-linecap:butt;stroke-linejoin:round;}
  </style>
 </defs>
 <g id="figure_1">
  <g id="patch_1">
   <path d="M 0 288 
L 576 288 
L 576 0 
L 0 0 
z
" style="fill:#ffffff;"/>
  </g>
  <g id="axes_1">
   <g id="patch_2">
    <path d="M 57.6 244.8 
L 518.4 244.8 
L 518.4 28.8 
L 57.6 28.8 
z
" style="fill:#ffffff;"/>
   </g>
   <g id="PolyCollection_1">
    <path clip-path="url(#pa107b2d174)" d="M 57.6 244.8 
L 57.6 244.8 
L 62.208 244.8 
L 66.816 244.8 
L 71.424 244.8 
L 76.032 244.8 
L 80.64 244.8 
L 85.248 244.8 
L 89.856 244.8 
L 94.464 244.8 
L 99.072 244.8 
L 103.68 244.8 
L 108.288 244.8 
L 112.896 244.8 
L 117.504 244.8 
L 122.112 244.8 
L 126.72 244.8 
L 131.328 244.8 
L 135.936 244.8 
L 140.544 244.8 
L 145.152 244.8 
L 149.76 244.8 
L 154.368 244.8 
L 158.976 244.8 
L 163.584 244.8 
L 168.192 244.8 
L 172.8 244.8 
L 177.408 244.8 
L 182.016 244.8 
L 186.624 244.8 
L 191.232 244.8 
L 195.84 244.8 
L 200.448 244.8 
L 205.056 244.8 
L 209.664 244.8 
L 214.272 244.8 
L 218.88 244.8 
L 223.488 244.8 
L 228.096 244.8 
L 232.704 244.8 
L 237.312 244.8 
L 241.92 244.8 
L 246.528 244.8 
L 251.136 244.8 
L 255.744 244.8 
L 260.352 244.8 
L 264.96 244.8 
L 269.568 244.8 
L 274.176 244.8 
L 278.784 244.8 
L 283.392 244.8 
L 288 244.8 
L 292.608 244.8 
L 297.216 244.8 
L 301.824 244.8 
L 306.432 244.8 
L 311.04 244.8 
L 315.648 244.8 
L 320.256 244.8 
L 324.864 244.8 
L 329.472 244.8 
L 334.08 244.8 
L 338.688 244.8 
L 343.296 244.8 
L 347.904 244.8 
L 352.512 244.8 
L 357.12 244.8 
L 361.728 244.8 
L 366.336 244.8 
L 370.944 244.8 
L 375.552 244.8 
L 380.16 244.8 
L 384.768 244.8 
L 389.376 244.8 
L 393.984 244.8 
L 398.592 244.8 
L 403.2 244.8 
L 407.808 244.8 
L 412.416 244.8 
L 417.024 244.8 
L 421.632 244.8 
L 426.24 244.8 
L 430.848 244.8 
L 435.456 244.8 
L 440.064 244.8 
L 444.672 244.8 
L 449.28 244.8 
L 453.888 244.8 
L 458.496 244.8 
L 463.104 244.8 
L 467.712 244.8 
L 472.32 244.8 
L 476.928 244.8 
L 481.536 244.8 
L 486.144 244.8 
L 490.752 244.8 
L 495.36 244.8 
L 499.968 244.8 
L 504.576 244.8 
L 509.184 244.8 
L 513.792 244.8 
L 518.4 244.8 
L 518.4 244.8 
L 518.4 244.8 
L 513.792 244.8 
L 509.184 244.8 
L 504.576 244.8 
L 499.968 244.8 
L 495.36 244.8 
L 490.752 244.8 
L 486.144 244.8 
L 481.536 244.8 
L 476.928 244.8 
L 472.32 244.8 
L 467.712 244.8 
L 463.104 244.8 
L 458.496 244.8 
L 453.888 244.8 
L 449.28 244.8 
L 444.672 244.8 
L 440.064 244.8 
L 435.456 244.8 
L 430.848 244.8 
L 426.24 244.8 
L 421.632 244.8 
L 417.024 244.8 
L 412.416 244.8 
L 407.808 244.8 
L 403.2 244.8 
L 398.592 244.8 
L 393.984 244.8 
L 389.376 244.8 
L 384.768 244.8 
L 380.16 244.8 
L 375.552 244.8 
L 370.944 244.8 
L 366.336 244.8 
L 361.728 244.8 
L 357.12 244.8 
L 352.512 244.8 
L 347.904 244.8 
L 343.296 244.8 
L 338.688 244.8 
L 334.08 244.8 
L 329.472 244.8 
L 324.864 244.8 
L 320.256 244.8 
L 315.648 244.8 
L 311.04 244.8 
L 306.432 244.8 
L 301.824 244.8 
L 297.216 244.8 
L 292.608 244.8 
L 288 244.8 
L 283.392 244.8 
L 278.784 244.8 
L 274.176 244.8 
L 269.568 244.8 
L 264.96 244.8 
L 260.352 244.8 
L 255.744 244.8 
L 251.136 244.8 
L 246.528 244.8 
L 241.92 244.8 
L 237.312 244.8 
L 232.704 244.8 
L 228.096 244.8 
L 223.488 244.8 
L 218.88 244.8 
L 214.272 244.8 
L 209.664 244.8 
L 205.056 244.8 
L 200.448 244.8 
L 195.84 244.8 
L 191.232 244.8 
L 186.624 244.8 
L 182.016 244.8 
L 177.408 244.8 
L 172.8 244.8 
L 168.192 244.8 
L 163.584 244.8 
L 158.976 244.8 
L 154.368 244.8 
L 149.76 244.8 
L 145.152 244.8 
L 140.544 244.8 
L 135.936 244.8 
L 131.328 244.8 
L 126.72 244.8 
L 122.112 244.8 
L 117.504 244.8 
L 112.896 244.8 
L 108.288 244.8 
L 103.68 244.8 
L 99.072 244.8 
L 94.464 244.8 
L 89.856 244.8 
L 85.248 244.8 
L 80.64 244.8 
L 76.032 244.8 
L 71.424 244.8 
L 66.816 244.8 
L 62.208 244.8 
L 57.6 244.8 
z
" style="fill:#00bfff;fill-opacity:0.2;"/>
   </g>
   <g id="PolyCollection_2">
    <path clip-path="url(#pa107b2d174)" d="M 57.6 244.8 
L 57.6 244.8 
L 62.208 244.8 
L 66.816 244.8 
L 71.424 244.8 
L 76.032 244.8 
L 80.64 244.8 
L 85.248 244.8 
L 89.856 244.8 
L 94.464 244.8 
L 99.072 244.8 
L 103.68 244.8 
L 108.288 244.8 
L 112.896 244.8 
L 117.504 244.8 
L 122.112 244.8 
L 126.72 244.8 
L 131.328 244.8 
L 135.936 244.8 
L 140.544 244.8 
L 145.152 244.8 
L 149.76 244.8 
L 154.368 244.8 
L 158.976 244.8 
L 163.584 244.8 
L 168.192 244.8 
L 172.8 244.8 
L 177.408 244.8 
L 182.016 244.8 
L 186.624 244.8 
L 191.232 244.8 
L 195.84 244.8 
L 200.448 244.8 
L 205.056 244.8 
L 209.664 244.8 
L 214.272 244.8 
L 218.88 244.8 
L 223.488 244.8 
L 228.096 244.8 
L 232.704 244.8 
L 237.312 244.8 
L 241.92 244.8 
L 246.528 244.8 
L 251.136 244.8 
L 255.744 244.8 
L 260.352 244.8 
L 264.96 244.8 
L 269.568 244.8 
L 274.176 244.8 
L 278.784 244.8 
L 283.392 244.8 
L 288 244.8 
L 292.608 244.8 
L 297.216 244.8 
L 301.824 244.8 
L 306.432 244.8 
L 311.04 244.8 
L 315.648 244.8 
L 320.256 244.8 
L 324.864 244.8 
L 329.472 244.8 
L 334.08 244.8 
L 338.688 244.8 
L 343.296 244.8 
L 347.904 244.8 
L 352.512 244.8 
L 357.12 244.8 
L 361.728 244.8 
L 366.336 244.8 
L 370.944 244.8 
L 375.552 244.8 
L 380.16 244.8 
L 384.768 244.8 
L 389.376 244.8 
L 393.984 244.8 
L 398.592 244.8 
L 403.2 244.8 
L 407.808 244.8 
L 412.416 244.8 
L 417.024 244.8 
L 421.632 244.8 
L 426.24 244.8 
L 430.848 244.8 
L 435.456 244.8 
L 440.064 244.8 
L 444.672 244.8 
L 449.28 244.8 
L 453.888 244.8 
L 458.496 244.8 
L 463.104 244.8 
L 467.712 244.8 
L 472.32 244.8 
L 476.928 244.8 
L 481.536 244.8 
L 486.144 244.8 
L 490.752 244.8 
L 495.36 244.8 
L 499.968 244.8 
L 504.576 244.8 
L 509.184 244.8 
L 513.792 244.8 
L 518.4 244.8 
L 518.4 244.8 
L 518.4 244.8 
L 513.792 244.8 
L 509.184 244.8 
L 504.576 244.8 
L 499.968 244.8 
L 495.36 244.8 
L 490.752 244.8 
L 486.144 244.8 
L 481.536 244.8 
L 476.928 244.8 
L 472.32 244.8 
L 467.712 244.8 
L 463.104 244.8 
L 458.496 244.8 
L 453.888 244.8 
L 449.28 244.8 
L 444.672 244.8 
L 440.064 244.8 
L 435.456 244.8 
L 430.848 244.8 
L 426.24 244.8 
L 421.632 244.8 
L 417.024 244.8 
L 412.416 244.8 
L 407.808 244.8 
L 403.2 244.8 
L 398.592 244.8 
L 393.984 244.8 
L 389.376 244.8 
L 384.768 244.8 
L 380.16 244.8 
L 375.552 244.8 
L 370.944 244.8 
L 366.336 244.8 
L 361.728 244.8 
L 357.12 244.8 
L 352.512 244.8 
L 347.904 244.8 
L 343.296 244.8 
L 338.688 244.8 
L 334.08 244.8 
L 329.472 244.8 
L 324.864 244.8 
L 320.256 244.8 
L 315.648 244.8 
L 311.04 244.8 
L 306.432 244.8 
L 301.824 244.8 
L 297.216 244.8 
L 292.608 244.8 
L 288 244.8 
L 283.392 244.8 
L 278.784 244.8 
L 274.176 244.8 
L 269.568 244.8 
L 264.96 244.8 
L 260.352 244.8 
L 255.744 244.8 
L 251.136 244.8 
L 246.528 244.8 
L 241.92 244.8 
L 237.312 244.8 
L 232.704 244.8 
L 228.096 244.8 
L 223.488 244.8 
L 218.88 244.8 
L 214.272 244.8 
L 209.664 244.8 
L 205.056 244.8 
L 200.448 244.8 
L 195.84 244.8 
L 191.232 244.8 
L 186.624 244.8 
L 182.016 244.8 
L 177.408 244.8 
L 172.8 244.8 
L 168.192 244.8 
L 163.584 244.8 
L 158.976 244.8 
L 154.368 244.8 
L 149.76 244.8 
L 145.152 244.8 
L 140.544 244.8 
L 135.936 244.8 
L 131.328 244.8 
L 126.72 244.8 
L 122.112 244.8 
L 117.504 244.8 
L 112.896 244.8 
L 108.288 244.8 
L 103.68 244.8 
L 99.072 244.8 
L 94.464 244.8 
L 89.856 244.8 
L 85.248 244.8 
L 80.64 244.8 
L 76.032 244.8 
L 71.424 244.8 
L 66.816 244.8 
L 62.208 244.8 
L 57.6 244.8 
z
" style="fill:#008000;fill-opacity:0.2;"/>
   </g>
   <g id="PolyCollection_3">
    <path clip-path="url(#pa107b2d174)" d="M 57.6 244.8 
L 57.6 244.8 
L 62.208 244.8 
L 66.816 244.8 
L 71.424 244.8 
L 76.032 244.8 
L 80.64 244.8 
L 85.248 244.8 
L 89.856 244.8 
L 94.464 244.8 
L 99.072 244.8 
L 103.68 244.8 
L 108.288 244.8 
L 112.896 244.8 
L 117.504 244.8 
L 122.112 244.8 
L 126.72 244.8 
L 131.328 244.8 
L 135.936 244.8 
L 140.544 244.8 
L 145.152 244.8 
L 149.76 244.8 
L 154.368 244.8 
L 158.976 244.8 
L 163.584 244.8 
L 168.192 244.8 
L 172.8 244.8 
L 177.408 244.8 
L 182.016 244.8 
L 186.624 244.8 
L 191.232 244.8 
L 195.84 244.8 
L 200.448 244.8 
L 205.056 244.8 
L 209.664 244.8 
L 214.272 244.8 
L 218.88 244.8 
L 223.488 244.8 
L 228.096 244.8 
L 232.704 244.8 
L 237.312 244.8 
L 241.92 244.8 
L 246.528 244.8 
L 251.136 244.8 
L 255.744 244.8 
L 260.352 244.8 
L 264.96 244.8 
L 269.568 244.8 
L 274.176 244.8 
L 278.784 244.8 
L 283.392 244.8 
L 288 244.8 
L 292.608 244.8 
L 297.216 244.8 
L 301.824 244.8 
L 306.432 244.8 
L 311.04 244.8 
L 315.648 244.8 
L 320.256 244.8 
L 324.864 244.8 
L 329.472 244.8 
L 334.08 244.8 
L 338.688 244.8 
L 343.296 244.8 
L 347.904 244.8 
L 352.512 244.8 
L 357.12 244.8 
L 361.728 244.8 
L 366.336 244.8 
L 370.944 244.8 
L 375.552 244.8 
L 380.16 244.8 
L 384.768 244.8 
L 389.376 244.8 
L 393.984 244.8 
L 398.592 244.8 
L 403.2 244.8 
L 407.808 244.8 
L 412.416 244.8 
L 417.024 244.8 
L 421.632 244.8 
L 426.24 244.8 
L 430.848 244.8 
L 435.456 244.8 
L 440.064 244.8 
L 444.672 244.8 
L 449.28 244.8 
L 453.888 244.8 
L 458.496 244.8 
L 463.104 244.8 
L 467.712 244.8 
L 472.32 244.8 
L 476.928 244.8 
L 481.536 244.8 
L 486.144 244.8 
L 490.752 244.8 
L 495.36 244.8 
L 499.968 244.8 
L 504.576 244.8 
L 509.184 244.8 
L 513.792 244.8 
L 518.4 244.8 
L 518.4 244.8 
L 518.4 244.8 
L 513.792 244.8 
L 509.184 244.8 
L 504.576 244.8 
L 499.968 244.8 
L 495.36 244.8 
L 490.752 244.8 
L 486.144 244.8 
L 481.536 241.425 
L 476.928 244.8 
L 472.32 244.8 
L 467.712 244.8 
L 463.104 244.8 
L 458.496 244.8 
L 453.888 244.8 
L 449.28 244.8 
L 444.672 244.8 
L 440.064 244.8 
L 435.456 244.8 
L 430.848 244.8 
L 426.24 244.8 
L 421.632 244.8 
L 417.024 244.8 
L 412.416 244.8 
L 407.808 244.8 
L 403.2 244.8 
L 398.592 244.8 
L 393.984 244.8 
L 389.376 244.8 
L 384.768 244.8 
L 380.16 244.8 
L 375.552 244.8 
L 370.944 244.8 
L 366.336 244.8 
L 361.728 244.8 
L 357.12 244.8 
L 352.512 244.8 
L 347.904 244.8 
L 343.296 244.8 
L 338.688 244.8 
L 334.08 244.8 
L 329.472 244.8 
L 324.864 244.8 
L 320.256 244.8 
L 315.648 244.8 
L 311.04 244.8 
L 306.432 244.8 
L 301.824 244.8 
L 297.216 244.8 
L 292.608 244.8 
L 288 244.8 
L 283.392 244.8 
L 278.784 244.8 
L 274.176 244.8 
L 269.568 244.8 
L 264.96 244.8 
L 260.352 244.8 
L 255.744 244.8 
L 251.136 244.8 
L 246.528 244.8 
L 241.92 244.8 
L 237.312 244.8 
L 232.704 244.8 
L 228.096 244.8 
L 223.488 244.8 
L 218.88 244.8 
L 214.272 244.8 
L 209.664 244.8 
L 205.056 244.8 
L 200.448 244.8 
L 195.84 244.8 
L 191.232 244.8 
L 186.624 244.8 
L 182.016 244.8 
L 177.408 244.8 
L 172.8 244.8 
L 168.192 244.8 
L 163.584 244.8 
L 158.976 244.8 
L 154.368 244.8 
L 149.76 244.8 
L 145.152 244.8 
L 140.544 244.8 
L 135.936 244.8 
L 131.328 244.8 
L 126.72 244.8 
L 122.112 244.8 
L 117.504 244.8 
L 112.896 244.8 
L 108.288 244.8 
L 103.68 244.8 
L 99.072 244.8 
L 94.464 244.8 
L 89.856 244.8 
L 85.248 244.8 
L 80.64 244.8 
L 76.032 244.8 
L 71.424 244.8 
L 66.816 244.8 
L 62.208 244.8 
L 57.6 244.8 
z
" style="fill:#ff0000;fill-opacity:0.2;"/>
   </g>
   <g id="PolyCollection_4">
    <path clip-path="url(#pa107b2d174)" d="M 57.6 244.8 
L 57.6 244.8 
L 62.208 244.8 
L 66.816 244.8 
L 71.424 244.8 
L 76.032 244.8 
L 80.64 244.8 
L 85.248 244.8 
L 89.856 244.8 
L 94.464 244.8 
L 99.072 244.8 
L 103.68 244.8 
L 108.288 244.8 
L 112.896 244.8 
L 117.504 244.8 
L 122.112 244.8 
L 126.72 244.8 
L 131.328 244.8 
L 135.936 244.8 
L 140.544 244.8 
L 145.152 244.8 
L 149.76 244.8 
L 154.368 244.8 
L 158.976 244.8 
L 163.584 244.8 
L 168.192 244.8 
L 172.8 241.425 
L 177.408 244.8 
L 182.016 244.8 
L 186.624 244.8 
L 191.232 244.8 
L 195.84 244.8 
L 200.448 241.425 
L 205.056 244.8 
L 209.664 241.425 
L 214.272 244.8 
L 218.88 241.425 
L 223.488 234.675 
L 228.096 238.05 
L 232.704 238.05 
L 237.312 244.8 
L 241.92 231.3 
L 246.528 241.425 
L 251.136 231.3 
L 255.744 231.3 
L 260.352 231.3 
L 264.96 241.425 
L 269.568 234.675 
L 274.176 241.425 
L 278.784 231.3 
L 283.392 234.675 
L 288 227.925 
L 292.608 241.425 
L 297.216 231.3 
L 301.824 227.925 
L 306.432 234.675 
L 311.04 227.925 
L 315.648 227.925 
L 320.256 221.175 
L 324.864 227.925 
L 329.472 224.55 
L 334.08 227.925 
L 338.688 234.675 
L 343.296 227.925 
L 347.904 227.925 
L 352.512 231.3 
L 357.12 227.925 
L 361.728 227.925 
L 366.336 207.675 
L 370.944 211.05 
L 375.552 190.8 
L 380.16 204.3 
L 384.768 234.675 
L 389.376 231.3 
L 393.984 214.425 
L 398.592 211.05 
L 403.2 207.675 
L 407.808 200.925 
L 412.416 221.175 
L 417.024 214.425 
L 421.632 187.425 
L 426.24 211.05 
L 430.848 187.425 
L 435.456 180.675 
L 440.064 207.675 
L 444.672 197.55 
L 449.28 200.925 
L 453.888 197.55 
L 458.496 187.425 
L 463.104 207.675 
L 467.712 204.3 
L 472.32 190.8 
L 476.928 197.55 
L 481.536 187.425 
L 486.144 187.425 
L 490.752 173.925 
L 495.36 170.55 
L 499.968 167.175 
L 504.576 190.8 
L 509.184 167.175 
L 513.792 150.3 
L 518.4 180.675 
L 518.4 140.175 
L 518.4 140.175 
L 513.792 133.425 
L 509.184 119.925 
L 504.576 133.425 
L 499.968 130.05 
L 495.36 150.3 
L 490.752 160.425 
L 486.144 126.675 
L 481.536 150.3 
L 476.928 157.05 
L 472.32 150.3 
L 467.712 160.425 
L 463.104 163.8 
L 458.496 126.675 
L 453.888 153.675 
L 449.28 170.55 
L 444.672 163.8 
L 440.064 170.55 
L 435.456 153.675 
L 430.848 146.925 
L 426.24 150.3 
L 421.632 150.3 
L 417.024 160.425 
L 412.416 194.175 
L 407.808 157.05 
L 403.2 173.925 
L 398.592 173.925 
L 393.984 187.425 
L 389.376 190.8 
L 384.768 204.3 
L 380.16 187.425 
L 375.552 163.8 
L 370.944 170.55 
L 366.336 170.55 
L 361.728 190.8 
L 357.12 211.05 
L 352.512 190.8 
L 347.904 211.05 
L 343.296 204.3 
L 338.688 200.925 
L 334.08 214.425 
L 329.472 207.675 
L 324.864 197.55 
L 320.256 187.425 
L 315.648 187.425 
L 311.04 187.425 
L 306.432 217.8 
L 301.824 214.425 
L 297.216 217.8 
L 292.608 221.175 
L 288 211.05 
L 283.392 211.05 
L 278.784 207.675 
L 274.176 214.425 
L 269.568 200.925 
L 264.96 217.8 
L 260.352 200.925 
L 255.744 224.55 
L 251.136 207.675 
L 246.528 214.425 
L 241.92 221.175 
L 237.312 214.425 
L 232.704 224.55 
L 228.096 221.175 
L 223.488 221.175 
L 218.88 224.55 
L 214.272 224.55 
L 209.664 221.175 
L 205.056 234.675 
L 200.448 217.8 
L 195.84 231.3 
L 191.232 231.3 
L 186.624 238.05 
L 182.016 227.925 
L 177.408 241.425 
L 172.8 234.675 
L 168.192 238.05 
L 163.584 238.05 
L 158.976 238.05 
L 154.368 244.8 
L 149.76 244.8 
L 145.152 244.8 
L 140.544 244.8 
L 135.936 244.8 
L 131.328 244.8 
L 126.72 244.8 
L 122.112 244.8 
L 117.504 244.8 
L 112.896 244.8 
L 108.288 244.8 
L 103.68 244.8 
L 99.072 244.8 
L 94.464 244.8 
L 89.856 244.8 
L 85.248 244.8 
L 80.64 244.8 
L 76.032 244.8 
L 71.424 244.8 
L 66.816 244.8 
L 62.208 244.8 
L 57.6 244.8 
z
" style="fill:#a52a2a;fill-opacity:0.2;"/>
   </g>
   <g id="PolyCollection_5">
    <path clip-path="url(#pa107b2d174)" d="M 57.6 244.8 
L 57.6 244.8 
L 62.208 244.8 
L 66.816 244.8 
L 71.424 244.8 
L 76.032 244.8 
L 80.64 244.8 
L 85.248 244.8 
L 89.856 244.8 
L 94.464 244.8 
L 99.072 244.4625 
L 103.68 244.8 
L 108.288 244.8 
L 112.896 244.8 
L 117.504 244.8 
L 122.112 244.125 
L 126.72 244.125 
L 131.328 244.125 
L 135.936 243.7875 
L 140.544 243.7875 
L 145.152 238.05 
L 149.76 237.375 
L 154.368 235.35 
L 158.976 234 
L 163.584 233.325 
L 168.192 231.975 
L 172.8 229.6125 
L 177.408 228.6 
L 182.016 227.25 
L 186.624 223.5375 
L 191.232 226.2375 
L 195.84 221.85 
L 200.448 213.75 
L 205.056 223.875 
L 209.664 218.8125 
L 214.272 216.7875 
L 218.88 209.3625 
L 223.488 209.7 
L 228.096 210.7125 
L 232.704 217.125 
L 237.312 197.2125 
L 241.92 191.1375 
L 246.528 186.4125 
L 251.136 185.4 
L 255.744 188.4375 
L 260.352 196.2 
L 264.96 185.7375 
L 269.568 196.5375 
L 274.176 198.225 
L 278.784 200.925 
L 283.392 169.2 
L 288 163.8 
L 292.608 190.125 
L 297.216 173.25 
L 301.824 170.8875 
L 306.432 176.9625 
L 311.04 126 
L 315.648 102.375 
L 320.256 141.1875 
L 324.864 138.825 
L 329.472 110.8125 
L 334.08 142.5375 
L 338.688 119.25 
L 343.296 113.175 
L 347.904 159.4125 
L 352.512 127.35 
L 357.12 129.7125 
L 361.728 132.4125 
L 366.336 170.2125 
L 370.944 114.1875 
L 375.552 108.45 
L 380.16 85.8375 
L 384.768 63.9 
L 389.376 99.675 
L 393.984 63.225 
L 398.592 75.0375 
L 403.2 48.7125 
L 407.808 57.4875 
L 412.416 47.3625 
L 417.024 43.3125 
L 421.632 53.4375 
L 426.24 42.6375 
L 430.848 45.3375 
L 435.456 86.5125 
L 440.064 103.3875 
L 444.672 49.3875 
L 449.28 37.9125 
L 453.888 38.5875 
L 458.496 46.6875 
L 463.104 49.05 
L 467.712 34.5375 
L 472.32 43.65 
L 476.928 57.15 
L 481.536 48.0375 
L 486.144 50.4 
L 490.752 31.5 
L 495.36 36.9 
L 499.968 40.95 
L 504.576 45.3375 
L 509.184 34.5375 
L 513.792 34.5375 
L 518.4 35.2125 
L 518.4 32.85 
L 518.4 32.85 
L 513.792 29.8125 
L 509.184 29.8125 
L 504.576 31.1625 
L 499.968 33.8625 
L 495.36 29.8125 
L 490.752 29.1375 
L 486.144 31.5 
L 481.536 31.5 
L 476.928 38.25 
L 472.32 34.2 
L 467.712 29.8125 
L 463.104 34.875 
L 458.496 34.875 
L 453.888 36.225 
L 449.28 30.825 
L 444.672 32.85 
L 440.064 41.9625 
L 435.456 36.9 
L 430.848 31.1625 
L 426.24 30.825 
L 421.632 32.175 
L 417.024 33.8625 
L 412.416 40.275 
L 407.808 36.225 
L 403.2 34.5375 
L 398.592 41.9625 
L 393.984 39.6 
L 389.376 45.3375 
L 384.768 37.9125 
L 380.16 45.675 
L 375.552 44.6625 
L 370.944 52.7625 
L 366.336 61.5375 
L 361.728 61.5375 
L 357.12 54.1125 
L 352.512 49.3875 
L 347.904 62.55 
L 343.296 56.475 
L 338.688 64.9125 
L 334.08 59.85 
L 329.472 49.3875 
L 324.864 53.775 
L 320.256 60.8625 
L 315.648 48.0375 
L 311.04 55.125 
L 306.432 68.2875 
L 301.824 59.85 
L 297.216 62.2125 
L 292.608 88.5375 
L 288 76.3875 
L 283.392 65.25 
L 278.784 85.1625 
L 274.176 94.275 
L 269.568 76.05 
L 264.96 81.7875 
L 260.352 80.4375 
L 255.744 89.2125 
L 251.136 88.5375 
L 246.528 91.9125 
L 241.92 89.55 
L 237.312 105.075 
L 232.704 136.8 
L 228.096 104.4 
L 223.488 108.1125 
L 218.88 103.05 
L 214.272 103.3875 
L 209.664 121.95 
L 205.056 131.7375 
L 200.448 112.1625 
L 195.84 132.075 
L 191.232 155.3625 
L 186.624 140.85 
L 182.016 151.65 
L 177.408 162.45 
L 172.8 156.375 
L 168.192 182.3625 
L 163.584 188.4375 
L 158.976 189.1125 
L 154.368 195.1875 
L 149.76 199.575 
L 145.152 212.0625 
L 140.544 236.7 
L 135.936 239.0625 
L 131.328 239.4 
L 126.72 241.7625 
L 122.112 241.7625 
L 117.504 244.8 
L 112.896 244.8 
L 108.288 244.8 
L 103.68 244.8 
L 99.072 242.1 
L 94.464 244.8 
L 89.856 244.8 
L 85.248 244.8 
L 80.64 244.8 
L 76.032 244.8 
L 71.424 244.8 
L 66.816 244.8 
L 62.208 244.8 
L 57.6 244.8 
z
" style="fill:#800080;fill-opacity:0.2;"/>
   </g>
   <g id="matplotlib.axis_1">
    <g id="xtick_1">
     <g id="line2d_1">
      <path clip-path="url(#pa107b2d174)" d="M 57.6 244.8 
L 57.6 28.8 
" style="fill:none;stroke:#b0b0b0;stroke-linecap:square;stroke-opacity:0.5;stroke-width:0.8;"/>
     </g>
     <g id="line2d_2">
      <defs>
       <path d="M 0 0 
L 0 3.5 
" id="med537cfc69" style="stroke:#000000;stroke-width:0.8;"/>
      </defs>
      <g>
       <use style="stroke:#000000;stroke-width:0.8;" x="57.6" xlink:href="#med537cfc69" y="244.8"/>
      </g>
     </g>
     <g id="text_1">
      <!-- 0.00 -->
      <defs>
       <path d="M 31.78125 66.40625 
Q 24.171875 66.40625 20.328125 58.90625 
Q 16.5 51.421875 16.5 36.375 
Q 16.5 21.390625 20.328125 13.890625 
Q 24.171875 6.390625 31.78125 6.390625 
Q 39.453125 6.390625 43.28125 13.890625 
Q 47.125 21.390625 47.125 36.375 
Q 47.125 51.421875 43.28125 58.90625 
Q 39.453125 66.40625 31.78125 66.40625 
z
M 31.78125 74.21875 
Q 44.046875 74.21875 50.515625 64.515625 
Q 56.984375 54.828125 56.984375 36.375 
Q 56.984375 17.96875 50.515625 8.265625 
Q 44.046875 -1.421875 31.78125 -1.421875 
Q 19.53125 -1.421875 13.0625 8.265625 
Q 6.59375 17.96875 6.59375 36.375 
Q 6.59375 54.828125 13.0625 64.515625 
Q 19.53125 74.21875 31.78125 74.21875 
z
" id="DejaVuSans-48"/>
       <path d="M 10.6875 12.40625 
L 21 12.40625 
L 21 0 
L 10.6875 0 
z
" id="DejaVuSans-46"/>
      </defs>
      <g transform="translate(46.467188 259.398438)scale(0.1 -0.1)">
       <use xlink:href="#DejaVuSans-48"/>
       <use x="63.623047" xlink:href="#DejaVuSans-46"/>
       <use x="95.410156" xlink:href="#DejaVuSans-48"/>
       <use x="159.033203" xlink:href="#DejaVuSans-48"/>
      </g>
     </g>
    </g>
    <g id="xtick_2">
     <g id="line2d_3">
      <path clip-path="url(#pa107b2d174)" d="M 115.2 244.8 
L 115.2 28.8 
" style="fill:none;stroke:#b0b0b0;stroke-linecap:square;stroke-opacity:0.5;stroke-width:0.8;"/>
     </g>
     <g id="line2d_4">
      <g>
       <use style="stroke:#000000;stroke-width:0.8;" x="115.2" xlink:href="#med537cfc69" y="244.8"/>
      </g>
     </g>
     <g id="text_2">
      <!-- 0.25 -->
      <defs>
       <path d="M 19.1875 8.296875 
L 53.609375 8.296875 
L 53.609375 0 
L 7.328125 0 
L 7.328125 8.296875 
Q 12.9375 14.109375 22.625 23.890625 
Q 32.328125 33.6875 34.8125 36.53125 
Q 39.546875 41.84375 41.421875 45.53125 
Q 43.3125 49.21875 43.3125 52.78125 
Q 43.3125 58.59375 39.234375 62.25 
Q 35.15625 65.921875 28.609375 65.921875 
Q 23.96875 65.921875 18.8125 64.3125 
Q 13.671875 62.703125 7.8125 59.421875 
L 7.8125 69.390625 
Q 13.765625 71.78125 18.9375 73 
Q 24.125 74.21875 28.421875 74.21875 
Q 39.75 74.21875 46.484375 68.546875 
Q 53.21875 62.890625 53.21875 53.421875 
Q 53.21875 48.921875 51.53125 44.890625 
Q 49.859375 40.875 45.40625 35.40625 
Q 44.1875 33.984375 37.640625 27.21875 
Q 31.109375 20.453125 19.1875 8.296875 
z
" id="DejaVuSans-50"/>
       <path d="M 10.796875 72.90625 
L 49.515625 72.90625 
L 49.515625 64.59375 
L 19.828125 64.59375 
L 19.828125 46.734375 
Q 21.96875 47.46875 24.109375 47.828125 
Q 26.265625 48.1875 28.421875 48.1875 
Q 40.625 48.1875 47.75 41.5 
Q 54.890625 34.8125 54.890625 23.390625 
Q 54.890625 11.625 47.5625 5.09375 
Q 40.234375 -1.421875 26.90625 -1.421875 
Q 22.3125 -1.421875 17.546875 -0.640625 
Q 12.796875 0.140625 7.71875 1.703125 
L 7.71875 11.625 
Q 12.109375 9.234375 16.796875 8.0625 
Q 21.484375 6.890625 26.703125 6.890625 
Q 35.15625 6.890625 40.078125 11.328125 
Q 45.015625 15.765625 45.015625 23.390625 
Q 45.015625 31 40.078125 35.4375 
Q 35.15625 39.890625 26.703125 39.890625 
Q 22.75 39.890625 18.8125 39.015625 
Q 14.890625 38.140625 10.796875 36.28125 
z
" id="DejaVuSans-53"/>
      </defs>
      <g transform="translate(104.067187 259.398438)scale(0.1 -0.1)">
       <use xlink:href="#DejaVuSans-48"/>
       <use x="63.623047" xlink:href="#DejaVuSans-46"/>
       <use x="95.410156" xlink:href="#DejaVuSans-50"/>
       <use x="159.033203" xlink:href="#DejaVuSans-53"/>
      </g>
     </g>
    </g>
    <g id="xtick_3">
     <g id="line2d_5">
      <path clip-path="url(#pa107b2d174)" d="M 172.8 244.8 
L 172.8 28.8 
" style="fill:none;stroke:#b0b0b0;stroke-linecap:square;stroke-opacity:0.5;stroke-width:0.8;"/>
     </g>
     <g id="line2d_6">
      <g>
       <use style="stroke:#000000;stroke-width:0.8;" x="172.8" xlink:href="#med537cfc69" y="244.8"/>
      </g>
     </g>
     <g id="text_3">
      <!-- 0.50 -->
      <g transform="translate(161.667187 259.398438)scale(0.1 -0.1)">
       <use xlink:href="#DejaVuSans-48"/>
       <use x="63.623047" xlink:href="#DejaVuSans-46"/>
       <use x="95.410156" xlink:href="#DejaVuSans-53"/>
       <use x="159.033203" xlink:href="#DejaVuSans-48"/>
      </g>
     </g>
    </g>
    <g id="xtick_4">
     <g id="line2d_7">
      <path clip-path="url(#pa107b2d174)" d="M 230.4 244.8 
L 230.4 28.8 
" style="fill:none;stroke:#b0b0b0;stroke-linecap:square;stroke-opacity:0.5;stroke-width:0.8;"/>
     </g>
     <g id="line2d_8">
      <g>
       <use style="stroke:#000000;stroke-width:0.8;" x="230.4" xlink:href="#med537cfc69" y="244.8"/>
      </g>
     </g>
     <g id="text_4">
      <!-- 0.75 -->
      <defs>
       <path d="M 8.203125 72.90625 
L 55.078125 72.90625 
L 55.078125 68.703125 
L 28.609375 0 
L 18.3125 0 
L 43.21875 64.59375 
L 8.203125 64.59375 
z
" id="DejaVuSans-55"/>
      </defs>
      <g transform="translate(219.267187 259.398438)scale(0.1 -0.1)">
       <use xlink:href="#DejaVuSans-48"/>
       <use x="63.623047" xlink:href="#DejaVuSans-46"/>
       <use x="95.410156" xlink:href="#DejaVuSans-55"/>
       <use x="159.033203" xlink:href="#DejaVuSans-53"/>
      </g>
     </g>
    </g>
    <g id="xtick_5">
     <g id="line2d_9">
      <path clip-path="url(#pa107b2d174)" d="M 288 244.8 
L 288 28.8 
" style="fill:none;stroke:#b0b0b0;stroke-linecap:square;stroke-opacity:0.5;stroke-width:0.8;"/>
     </g>
     <g id="line2d_10">
      <g>
       <use style="stroke:#000000;stroke-width:0.8;" x="288" xlink:href="#med537cfc69" y="244.8"/>
      </g>
     </g>
     <g id="text_5">
      <!-- 1.00 -->
      <defs>
       <path d="M 12.40625 8.296875 
L 28.515625 8.296875 
L 28.515625 63.921875 
L 10.984375 60.40625 
L 10.984375 69.390625 
L 28.421875 72.90625 
L 38.28125 72.90625 
L 38.28125 8.296875 
L 54.390625 8.296875 
L 54.390625 0 
L 12.40625 0 
z
" id="DejaVuSans-49"/>
      </defs>
      <g transform="translate(276.867188 259.398438)scale(0.1 -0.1)">
       <use xlink:href="#DejaVuSans-49"/>
       <use x="63.623047" xlink:href="#DejaVuSans-46"/>
       <use x="95.410156" xlink:href="#DejaVuSans-48"/>
       <use x="159.033203" xlink:href="#DejaVuSans-48"/>
      </g>
     </g>
    </g>
    <g id="xtick_6">
     <g id="line2d_11">
      <path clip-path="url(#pa107b2d174)" d="M 345.6 244.8 
L 345.6 28.8 
" style="fill:none;stroke:#b0b0b0;stroke-linecap:square;stroke-opacity:0.5;stroke-width:0.8;"/>
     </g>
     <g id="line2d_12">
      <g>
       <use style="stroke:#000000;stroke-width:0.8;" x="345.6" xlink:href="#med537cfc69" y="244.8"/>
      </g>
     </g>
     <g id="text_6">
      <!-- 1.25 -->
      <g transform="translate(334.467188 259.398438)scale(0.1 -0.1)">
       <use xlink:href="#DejaVuSans-49"/>
       <use x="63.623047" xlink:href="#DejaVuSans-46"/>
       <use x="95.410156" xlink:href="#DejaVuSans-50"/>
       <use x="159.033203" xlink:href="#DejaVuSans-53"/>
      </g>
     </g>
    </g>
    <g id="xtick_7">
     <g id="line2d_13">
      <path clip-path="url(#pa107b2d174)" d="M 403.2 244.8 
L 403.2 28.8 
" style="fill:none;stroke:#b0b0b0;stroke-linecap:square;stroke-opacity:0.5;stroke-width:0.8;"/>
     </g>
     <g id="line2d_14">
      <g>
       <use style="stroke:#000000;stroke-width:0.8;" x="403.2" xlink:href="#med537cfc69" y="244.8"/>
      </g>
     </g>
     <g id="text_7">
      <!-- 1.50 -->
      <g transform="translate(392.067187 259.398438)scale(0.1 -0.1)">
       <use xlink:href="#DejaVuSans-49"/>
       <use x="63.623047" xlink:href="#DejaVuSans-46"/>
       <use x="95.410156" xlink:href="#DejaVuSans-53"/>
       <use x="159.033203" xlink:href="#DejaVuSans-48"/>
      </g>
     </g>
    </g>
    <g id="xtick_8">
     <g id="line2d_15">
      <path clip-path="url(#pa107b2d174)" d="M 460.8 244.8 
L 460.8 28.8 
" style="fill:none;stroke:#b0b0b0;stroke-linecap:square;stroke-opacity:0.5;stroke-width:0.8;"/>
     </g>
     <g id="line2d_16">
      <g>
       <use style="stroke:#000000;stroke-width:0.8;" x="460.8" xlink:href="#med537cfc69" y="244.8"/>
      </g>
     </g>
     <g id="text_8">
      <!-- 1.75 -->
      <g transform="translate(449.667187 259.398438)scale(0.1 -0.1)">
       <use xlink:href="#DejaVuSans-49"/>
       <use x="63.623047" xlink:href="#DejaVuSans-46"/>
       <use x="95.410156" xlink:href="#DejaVuSans-55"/>
       <use x="159.033203" xlink:href="#DejaVuSans-53"/>
      </g>
     </g>
    </g>
    <g id="xtick_9">
     <g id="line2d_17">
      <path clip-path="url(#pa107b2d174)" d="M 518.4 244.8 
L 518.4 28.8 
" style="fill:none;stroke:#b0b0b0;stroke-linecap:square;stroke-opacity:0.5;stroke-width:0.8;"/>
     </g>
     <g id="line2d_18">
      <g>
       <use style="stroke:#000000;stroke-width:0.8;" x="518.4" xlink:href="#med537cfc69" y="244.8"/>
      </g>
     </g>
     <g id="text_9">
      <!-- 2.00 -->
      <g transform="translate(507.267187 259.398438)scale(0.1 -0.1)">
       <use xlink:href="#DejaVuSans-50"/>
       <use x="63.623047" xlink:href="#DejaVuSans-46"/>
       <use x="95.410156" xlink:href="#DejaVuSans-48"/>
       <use x="159.033203" xlink:href="#DejaVuSans-48"/>
      </g>
     </g>
    </g>
    <g id="text_10">
     <!-- Steps(M) -->
     <defs>
      <path d="M 53.515625 70.515625 
L 53.515625 60.890625 
Q 47.90625 63.578125 42.921875 64.890625 
Q 37.9375 66.21875 33.296875 66.21875 
Q 25.25 66.21875 20.875 63.09375 
Q 16.5 59.96875 16.5 54.203125 
Q 16.5 49.359375 19.40625 46.890625 
Q 22.3125 44.4375 30.421875 42.921875 
L 36.375 41.703125 
Q 47.40625 39.59375 52.65625 34.296875 
Q 57.90625 29 57.90625 20.125 
Q 57.90625 9.515625 50.796875 4.046875 
Q 43.703125 -1.421875 29.984375 -1.421875 
Q 24.8125 -1.421875 18.96875 -0.25 
Q 13.140625 0.921875 6.890625 3.21875 
L 6.890625 13.375 
Q 12.890625 10.015625 18.65625 8.296875 
Q 24.421875 6.59375 29.984375 6.59375 
Q 38.421875 6.59375 43.015625 9.90625 
Q 47.609375 13.234375 47.609375 19.390625 
Q 47.609375 24.75 44.3125 27.78125 
Q 41.015625 30.8125 33.5 32.328125 
L 27.484375 33.5 
Q 16.453125 35.6875 11.515625 40.375 
Q 6.59375 45.0625 6.59375 53.421875 
Q 6.59375 63.09375 13.40625 68.65625 
Q 20.21875 74.21875 32.171875 74.21875 
Q 37.3125 74.21875 42.625 73.28125 
Q 47.953125 72.359375 53.515625 70.515625 
z
" id="DejaVuSans-83"/>
      <path d="M 18.3125 70.21875 
L 18.3125 54.6875 
L 36.8125 54.6875 
L 36.8125 47.703125 
L 18.3125 47.703125 
L 18.3125 18.015625 
Q 18.3125 11.328125 20.140625 9.421875 
Q 21.96875 7.515625 27.59375 7.515625 
L 36.8125 7.515625 
L 36.8125 0 
L 27.59375 0 
Q 17.1875 0 13.234375 3.875 
Q 9.28125 7.765625 9.28125 18.015625 
L 9.28125 47.703125 
L 2.6875 47.703125 
L 2.6875 54.6875 
L 9.28125 54.6875 
L 9.28125 70.21875 
z
" id="DejaVuSans-116"/>
      <path d="M 56.203125 29.59375 
L 56.203125 25.203125 
L 14.890625 25.203125 
Q 15.484375 15.921875 20.484375 11.0625 
Q 25.484375 6.203125 34.421875 6.203125 
Q 39.59375 6.203125 44.453125 7.46875 
Q 49.3125 8.734375 54.109375 11.28125 
L 54.109375 2.78125 
Q 49.265625 0.734375 44.1875 -0.34375 
Q 39.109375 -1.421875 33.890625 -1.421875 
Q 20.796875 -1.421875 13.15625 6.1875 
Q 5.515625 13.8125 5.515625 26.8125 
Q 5.515625 40.234375 12.765625 48.109375 
Q 20.015625 56 32.328125 56 
Q 43.359375 56 49.78125 48.890625 
Q 56.203125 41.796875 56.203125 29.59375 
z
M 47.21875 32.234375 
Q 47.125 39.59375 43.09375 43.984375 
Q 39.0625 48.390625 32.421875 48.390625 
Q 24.90625 48.390625 20.390625 44.140625 
Q 15.875 39.890625 15.1875 32.171875 
z
" id="DejaVuSans-101"/>
      <path d="M 18.109375 8.203125 
L 18.109375 -20.796875 
L 9.078125 -20.796875 
L 9.078125 54.6875 
L 18.109375 54.6875 
L 18.109375 46.390625 
Q 20.953125 51.265625 25.265625 53.625 
Q 29.59375 56 35.59375 56 
Q 45.5625 56 51.78125 48.09375 
Q 58.015625 40.1875 58.015625 27.296875 
Q 58.015625 14.40625 51.78125 6.484375 
Q 45.5625 -1.421875 35.59375 -1.421875 
Q 29.59375 -1.421875 25.265625 0.953125 
Q 20.953125 3.328125 18.109375 8.203125 
z
M 48.6875 27.296875 
Q 48.6875 37.203125 44.609375 42.84375 
Q 40.53125 48.484375 33.40625 48.484375 
Q 26.265625 48.484375 22.1875 42.84375 
Q 18.109375 37.203125 18.109375 27.296875 
Q 18.109375 17.390625 22.1875 11.75 
Q 26.265625 6.109375 33.40625 6.109375 
Q 40.53125 6.109375 44.609375 11.75 
Q 48.6875 17.390625 48.6875 27.296875 
z
" id="DejaVuSans-112"/>
      <path d="M 44.28125 53.078125 
L 44.28125 44.578125 
Q 40.484375 46.53125 36.375 47.5 
Q 32.28125 48.484375 27.875 48.484375 
Q 21.1875 48.484375 17.84375 46.4375 
Q 14.5 44.390625 14.5 40.28125 
Q 14.5 37.15625 16.890625 35.375 
Q 19.28125 33.59375 26.515625 31.984375 
L 29.59375 31.296875 
Q 39.15625 29.25 43.1875 25.515625 
Q 47.21875 21.78125 47.21875 15.09375 
Q 47.21875 7.46875 41.1875 3.015625 
Q 35.15625 -1.421875 24.609375 -1.421875 
Q 20.21875 -1.421875 15.453125 -0.5625 
Q 10.6875 0.296875 5.421875 2 
L 5.421875 11.28125 
Q 10.40625 8.6875 15.234375 7.390625 
Q 20.0625 6.109375 24.8125 6.109375 
Q 31.15625 6.109375 34.5625 8.28125 
Q 37.984375 10.453125 37.984375 14.40625 
Q 37.984375 18.0625 35.515625 20.015625 
Q 33.0625 21.96875 24.703125 23.78125 
L 21.578125 24.515625 
Q 13.234375 26.265625 9.515625 29.90625 
Q 5.8125 33.546875 5.8125 39.890625 
Q 5.8125 47.609375 11.28125 51.796875 
Q 16.75 56 26.8125 56 
Q 31.78125 56 36.171875 55.265625 
Q 40.578125 54.546875 44.28125 53.078125 
z
" id="DejaVuSans-115"/>
      <path d="M 31 75.875 
Q 24.46875 64.65625 21.28125 53.65625 
Q 18.109375 42.671875 18.109375 31.390625 
Q 18.109375 20.125 21.3125 9.0625 
Q 24.515625 -2 31 -13.1875 
L 23.1875 -13.1875 
Q 15.875 -1.703125 12.234375 9.375 
Q 8.59375 20.453125 8.59375 31.390625 
Q 8.59375 42.28125 12.203125 53.3125 
Q 15.828125 64.359375 23.1875 75.875 
z
" id="DejaVuSans-40"/>
      <path d="M 9.8125 72.90625 
L 24.515625 72.90625 
L 43.109375 23.296875 
L 61.8125 72.90625 
L 76.515625 72.90625 
L 76.515625 0 
L 66.890625 0 
L 66.890625 64.015625 
L 48.09375 14.015625 
L 38.1875 14.015625 
L 19.390625 64.015625 
L 19.390625 0 
L 9.8125 0 
z
" id="DejaVuSans-77"/>
      <path d="M 8.015625 75.875 
L 15.828125 75.875 
Q 23.140625 64.359375 26.78125 53.3125 
Q 30.421875 42.28125 30.421875 31.390625 
Q 30.421875 20.453125 26.78125 9.375 
Q 23.140625 -1.703125 15.828125 -13.1875 
L 8.015625 -13.1875 
Q 14.5 -2 17.703125 9.0625 
Q 20.90625 20.125 20.90625 31.390625 
Q 20.90625 42.671875 17.703125 53.65625 
Q 14.5 64.65625 8.015625 75.875 
z
" id="DejaVuSans-41"/>
     </defs>
     <g transform="translate(261.353437 276.59625)scale(0.12 -0.12)">
      <use xlink:href="#DejaVuSans-83"/>
      <use x="63.476562" xlink:href="#DejaVuSans-116"/>
      <use x="102.685547" xlink:href="#DejaVuSans-101"/>
      <use x="164.208984" xlink:href="#DejaVuSans-112"/>
      <use x="227.685547" xlink:href="#DejaVuSans-115"/>
      <use x="279.785156" xlink:href="#DejaVuSans-40"/>
      <use x="318.798828" xlink:href="#DejaVuSans-77"/>
      <use x="405.078125" xlink:href="#DejaVuSans-41"/>
     </g>
    </g>
   </g>
   <g id="matplotlib.axis_2">
    <g id="ytick_1">
     <g id="line2d_19">
      <path clip-path="url(#pa107b2d174)" d="M 57.6 244.8 
L 518.4 244.8 
" style="fill:none;stroke:#b0b0b0;stroke-linecap:square;stroke-opacity:0.5;stroke-width:0.8;"/>
     </g>
     <g id="line2d_20">
      <defs>
       <path d="M 0 0 
L -3.5 0 
" id="m054459a68e" style="stroke:#000000;stroke-width:0.8;"/>
      </defs>
      <g>
       <use style="stroke:#000000;stroke-width:0.8;" x="57.6" xlink:href="#m054459a68e" y="244.8"/>
      </g>
     </g>
     <g id="text_11">
      <!-- 0.0 -->
      <g transform="translate(34.696875 248.599219)scale(0.1 -0.1)">
       <use xlink:href="#DejaVuSans-48"/>
       <use x="63.623047" xlink:href="#DejaVuSans-46"/>
       <use x="95.410156" xlink:href="#DejaVuSans-48"/>
      </g>
     </g>
    </g>
    <g id="ytick_2">
     <g id="line2d_21">
      <path clip-path="url(#pa107b2d174)" d="M 57.6 201.6 
L 518.4 201.6 
" style="fill:none;stroke:#b0b0b0;stroke-linecap:square;stroke-opacity:0.5;stroke-width:0.8;"/>
     </g>
     <g id="line2d_22">
      <g>
       <use style="stroke:#000000;stroke-width:0.8;" x="57.6" xlink:href="#m054459a68e" y="201.6"/>
      </g>
     </g>
     <g id="text_12">
      <!-- 0.2 -->
      <g transform="translate(34.696875 205.399219)scale(0.1 -0.1)">
       <use xlink:href="#DejaVuSans-48"/>
       <use x="63.623047" xlink:href="#DejaVuSans-46"/>
       <use x="95.410156" xlink:href="#DejaVuSans-50"/>
      </g>
     </g>
    </g>
    <g id="ytick_3">
     <g id="line2d_23">
      <path clip-path="url(#pa107b2d174)" d="M 57.6 158.4 
L 518.4 158.4 
" style="fill:none;stroke:#b0b0b0;stroke-linecap:square;stroke-opacity:0.5;stroke-width:0.8;"/>
     </g>
     <g id="line2d_24">
      <g>
       <use style="stroke:#000000;stroke-width:0.8;" x="57.6" xlink:href="#m054459a68e" y="158.4"/>
      </g>
     </g>
     <g id="text_13">
      <!-- 0.4 -->
      <defs>
       <path d="M 37.796875 64.3125 
L 12.890625 25.390625 
L 37.796875 25.390625 
z
M 35.203125 72.90625 
L 47.609375 72.90625 
L 47.609375 25.390625 
L 58.015625 25.390625 
L 58.015625 17.1875 
L 47.609375 17.1875 
L 47.609375 0 
L 37.796875 0 
L 37.796875 17.1875 
L 4.890625 17.1875 
L 4.890625 26.703125 
z
" id="DejaVuSans-52"/>
      </defs>
      <g transform="translate(34.696875 162.199219)scale(0.1 -0.1)">
       <use xlink:href="#DejaVuSans-48"/>
       <use x="63.623047" xlink:href="#DejaVuSans-46"/>
       <use x="95.410156" xlink:href="#DejaVuSans-52"/>
      </g>
     </g>
    </g>
    <g id="ytick_4">
     <g id="line2d_25">
      <path clip-path="url(#pa107b2d174)" d="M 57.6 115.2 
L 518.4 115.2 
" style="fill:none;stroke:#b0b0b0;stroke-linecap:square;stroke-opacity:0.5;stroke-width:0.8;"/>
     </g>
     <g id="line2d_26">
      <g>
       <use style="stroke:#000000;stroke-width:0.8;" x="57.6" xlink:href="#m054459a68e" y="115.2"/>
      </g>
     </g>
     <g id="text_14">
      <!-- 0.6 -->
      <defs>
       <path d="M 33.015625 40.375 
Q 26.375 40.375 22.484375 35.828125 
Q 18.609375 31.296875 18.609375 23.390625 
Q 18.609375 15.53125 22.484375 10.953125 
Q 26.375 6.390625 33.015625 6.390625 
Q 39.65625 6.390625 43.53125 10.953125 
Q 47.40625 15.53125 47.40625 23.390625 
Q 47.40625 31.296875 43.53125 35.828125 
Q 39.65625 40.375 33.015625 40.375 
z
M 52.59375 71.296875 
L 52.59375 62.3125 
Q 48.875 64.0625 45.09375 64.984375 
Q 41.3125 65.921875 37.59375 65.921875 
Q 27.828125 65.921875 22.671875 59.328125 
Q 17.53125 52.734375 16.796875 39.40625 
Q 19.671875 43.65625 24.015625 45.921875 
Q 28.375 48.1875 33.59375 48.1875 
Q 44.578125 48.1875 50.953125 41.515625 
Q 57.328125 34.859375 57.328125 23.390625 
Q 57.328125 12.15625 50.6875 5.359375 
Q 44.046875 -1.421875 33.015625 -1.421875 
Q 20.359375 -1.421875 13.671875 8.265625 
Q 6.984375 17.96875 6.984375 36.375 
Q 6.984375 53.65625 15.1875 63.9375 
Q 23.390625 74.21875 37.203125 74.21875 
Q 40.921875 74.21875 44.703125 73.484375 
Q 48.484375 72.75 52.59375 71.296875 
z
" id="DejaVuSans-54"/>
      </defs>
      <g transform="translate(34.696875 118.999219)scale(0.1 -0.1)">
       <use xlink:href="#DejaVuSans-48"/>
       <use x="63.623047" xlink:href="#DejaVuSans-46"/>
       <use x="95.410156" xlink:href="#DejaVuSans-54"/>
      </g>
     </g>
    </g>
    <g id="ytick_5">
     <g id="line2d_27">
      <path clip-path="url(#pa107b2d174)" d="M 57.6 72 
L 518.4 72 
" style="fill:none;stroke:#b0b0b0;stroke-linecap:square;stroke-opacity:0.5;stroke-width:0.8;"/>
     </g>
     <g id="line2d_28">
      <g>
       <use style="stroke:#000000;stroke-width:0.8;" x="57.6" xlink:href="#m054459a68e" y="72"/>
      </g>
     </g>
     <g id="text_15">
      <!-- 0.8 -->
      <defs>
       <path d="M 31.78125 34.625 
Q 24.75 34.625 20.71875 30.859375 
Q 16.703125 27.09375 16.703125 20.515625 
Q 16.703125 13.921875 20.71875 10.15625 
Q 24.75 6.390625 31.78125 6.390625 
Q 38.8125 6.390625 42.859375 10.171875 
Q 46.921875 13.96875 46.921875 20.515625 
Q 46.921875 27.09375 42.890625 30.859375 
Q 38.875 34.625 31.78125 34.625 
z
M 21.921875 38.8125 
Q 15.578125 40.375 12.03125 44.71875 
Q 8.5 49.078125 8.5 55.328125 
Q 8.5 64.0625 14.71875 69.140625 
Q 20.953125 74.21875 31.78125 74.21875 
Q 42.671875 74.21875 48.875 69.140625 
Q 55.078125 64.0625 55.078125 55.328125 
Q 55.078125 49.078125 51.53125 44.71875 
Q 48 40.375 41.703125 38.8125 
Q 48.828125 37.15625 52.796875 32.3125 
Q 56.78125 27.484375 56.78125 20.515625 
Q 56.78125 9.90625 50.3125 4.234375 
Q 43.84375 -1.421875 31.78125 -1.421875 
Q 19.734375 -1.421875 13.25 4.234375 
Q 6.78125 9.90625 6.78125 20.515625 
Q 6.78125 27.484375 10.78125 32.3125 
Q 14.796875 37.15625 21.921875 38.8125 
z
M 18.3125 54.390625 
Q 18.3125 48.734375 21.84375 45.5625 
Q 25.390625 42.390625 31.78125 42.390625 
Q 38.140625 42.390625 41.71875 45.5625 
Q 45.3125 48.734375 45.3125 54.390625 
Q 45.3125 60.0625 41.71875 63.234375 
Q 38.140625 66.40625 31.78125 66.40625 
Q 25.390625 66.40625 21.84375 63.234375 
Q 18.3125 60.0625 18.3125 54.390625 
z
" id="DejaVuSans-56"/>
      </defs>
      <g transform="translate(34.696875 75.799219)scale(0.1 -0.1)">
       <use xlink:href="#DejaVuSans-48"/>
       <use x="63.623047" xlink:href="#DejaVuSans-46"/>
       <use x="95.410156" xlink:href="#DejaVuSans-56"/>
      </g>
     </g>
    </g>
    <g id="ytick_6">
     <g id="line2d_29">
      <path clip-path="url(#pa107b2d174)" d="M 57.6 28.8 
L 518.4 28.8 
" style="fill:none;stroke:#b0b0b0;stroke-linecap:square;stroke-opacity:0.5;stroke-width:0.8;"/>
     </g>
     <g id="line2d_30">
      <g>
       <use style="stroke:#000000;stroke-width:0.8;" x="57.6" xlink:href="#m054459a68e" y="28.8"/>
      </g>
     </g>
     <g id="text_16">
      <!-- 1.0 -->
      <g transform="translate(34.696875 32.599219)scale(0.1 -0.1)">
       <use xlink:href="#DejaVuSans-49"/>
       <use x="63.623047" xlink:href="#DejaVuSans-46"/>
       <use x="95.410156" xlink:href="#DejaVuSans-48"/>
      </g>
     </g>
    </g>
    <g id="ytick_7">
     <g id="line2d_31">
      <path clip-path="url(#pa107b2d174)" d="M 57.6 223.2 
L 518.4 223.2 
" style="fill:none;stroke:#b0b0b0;stroke-linecap:square;stroke-opacity:0.5;stroke-width:0.8;"/>
     </g>
     <g id="line2d_32">
      <defs>
       <path d="M 0 0 
L -2 0 
" id="maba6252123" style="stroke:#000000;stroke-width:0.6;"/>
      </defs>
      <g>
       <use style="stroke:#000000;stroke-width:0.6;" x="57.6" xlink:href="#maba6252123" y="223.2"/>
      </g>
     </g>
    </g>
    <g id="ytick_8">
     <g id="line2d_33">
      <path clip-path="url(#pa107b2d174)" d="M 57.6 180 
L 518.4 180 
" style="fill:none;stroke:#b0b0b0;stroke-linecap:square;stroke-opacity:0.5;stroke-width:0.8;"/>
     </g>
     <g id="line2d_34">
      <g>
       <use style="stroke:#000000;stroke-width:0.6;" x="57.6" xlink:href="#maba6252123" y="180"/>
      </g>
     </g>
    </g>
    <g id="ytick_9">
     <g id="line2d_35">
      <path clip-path="url(#pa107b2d174)" d="M 57.6 136.8 
L 518.4 136.8 
" style="fill:none;stroke:#b0b0b0;stroke-linecap:square;stroke-opacity:0.5;stroke-width:0.8;"/>
     </g>
     <g id="line2d_36">
      <g>
       <use style="stroke:#000000;stroke-width:0.6;" x="57.6" xlink:href="#maba6252123" y="136.8"/>
      </g>
     </g>
    </g>
    <g id="ytick_10">
     <g id="line2d_37">
      <path clip-path="url(#pa107b2d174)" d="M 57.6 93.6 
L 518.4 93.6 
" style="fill:none;stroke:#b0b0b0;stroke-linecap:square;stroke-opacity:0.5;stroke-width:0.8;"/>
     </g>
     <g id="line2d_38">
      <g>
       <use style="stroke:#000000;stroke-width:0.6;" x="57.6" xlink:href="#maba6252123" y="93.6"/>
      </g>
     </g>
    </g>
    <g id="ytick_11">
     <g id="line2d_39">
      <path clip-path="url(#pa107b2d174)" d="M 57.6 50.4 
L 518.4 50.4 
" style="fill:none;stroke:#b0b0b0;stroke-linecap:square;stroke-opacity:0.5;stroke-width:0.8;"/>
     </g>
     <g id="line2d_40">
      <g>
       <use style="stroke:#000000;stroke-width:0.6;" x="57.6" xlink:href="#maba6252123" y="50.4"/>
      </g>
     </g>
    </g>
    <g id="text_17">
     <!-- Test Win Rate -->
     <defs>
      <path d="M -0.296875 72.90625 
L 61.375 72.90625 
L 61.375 64.59375 
L 35.5 64.59375 
L 35.5 0 
L 25.59375 0 
L 25.59375 64.59375 
L -0.296875 64.59375 
z
" id="DejaVuSans-84"/>
      <path id="DejaVuSans-32"/>
      <path d="M 3.328125 72.90625 
L 13.28125 72.90625 
L 28.609375 11.28125 
L 43.890625 72.90625 
L 54.984375 72.90625 
L 70.3125 11.28125 
L 85.59375 72.90625 
L 95.609375 72.90625 
L 77.296875 0 
L 64.890625 0 
L 49.515625 63.28125 
L 33.984375 0 
L 21.578125 0 
z
" id="DejaVuSans-87"/>
      <path d="M 9.421875 54.6875 
L 18.40625 54.6875 
L 18.40625 0 
L 9.421875 0 
z
M 9.421875 75.984375 
L 18.40625 75.984375 
L 18.40625 64.59375 
L 9.421875 64.59375 
z
" id="DejaVuSans-105"/>
      <path d="M 54.890625 33.015625 
L 54.890625 0 
L 45.90625 0 
L 45.90625 32.71875 
Q 45.90625 40.484375 42.875 44.328125 
Q 39.84375 48.1875 33.796875 48.1875 
Q 26.515625 48.1875 22.3125 43.546875 
Q 18.109375 38.921875 18.109375 30.90625 
L 18.109375 0 
L 9.078125 0 
L 9.078125 54.6875 
L 18.109375 54.6875 
L 18.109375 46.1875 
Q 21.34375 51.125 25.703125 53.5625 
Q 30.078125 56 35.796875 56 
Q 45.21875 56 50.046875 50.171875 
Q 54.890625 44.34375 54.890625 33.015625 
z
" id="DejaVuSans-110"/>
      <path d="M 44.390625 34.1875 
Q 47.5625 33.109375 50.5625 29.59375 
Q 53.5625 26.078125 56.59375 19.921875 
L 66.609375 0 
L 56 0 
L 46.6875 18.703125 
Q 43.0625 26.03125 39.671875 28.421875 
Q 36.28125 30.8125 30.421875 30.8125 
L 19.671875 30.8125 
L 19.671875 0 
L 9.8125 0 
L 9.8125 72.90625 
L 32.078125 72.90625 
Q 44.578125 72.90625 50.734375 67.671875 
Q 56.890625 62.453125 56.890625 51.90625 
Q 56.890625 45.015625 53.6875 40.46875 
Q 50.484375 35.9375 44.390625 34.1875 
z
M 19.671875 64.796875 
L 19.671875 38.921875 
L 32.078125 38.921875 
Q 39.203125 38.921875 42.84375 42.21875 
Q 46.484375 45.515625 46.484375 51.90625 
Q 46.484375 58.296875 42.84375 61.546875 
Q 39.203125 64.796875 32.078125 64.796875 
z
" id="DejaVuSans-82"/>
      <path d="M 34.28125 27.484375 
Q 23.390625 27.484375 19.1875 25 
Q 14.984375 22.515625 14.984375 16.5 
Q 14.984375 11.71875 18.140625 8.90625 
Q 21.296875 6.109375 26.703125 6.109375 
Q 34.1875 6.109375 38.703125 11.40625 
Q 43.21875 16.703125 43.21875 25.484375 
L 43.21875 27.484375 
z
M 52.203125 31.203125 
L 52.203125 0 
L 43.21875 0 
L 43.21875 8.296875 
Q 40.140625 3.328125 35.546875 0.953125 
Q 30.953125 -1.421875 24.3125 -1.421875 
Q 15.921875 -1.421875 10.953125 3.296875 
Q 6 8.015625 6 15.921875 
Q 6 25.140625 12.171875 29.828125 
Q 18.359375 34.515625 30.609375 34.515625 
L 43.21875 34.515625 
L 43.21875 35.40625 
Q 43.21875 41.609375 39.140625 45 
Q 35.0625 48.390625 27.6875 48.390625 
Q 23 48.390625 18.546875 47.265625 
Q 14.109375 46.140625 10.015625 43.890625 
L 10.015625 52.203125 
Q 14.9375 54.109375 19.578125 55.046875 
Q 24.21875 56 28.609375 56 
Q 40.484375 56 46.34375 49.84375 
Q 52.203125 43.703125 52.203125 31.203125 
z
" id="DejaVuSans-97"/>
     </defs>
     <g transform="translate(28.20125 177.45)rotate(-90)scale(0.12 -0.12)">
      <use xlink:href="#DejaVuSans-84"/>
      <use x="44.083984" xlink:href="#DejaVuSans-101"/>
      <use x="105.607422" xlink:href="#DejaVuSans-115"/>
      <use x="157.707031" xlink:href="#DejaVuSans-116"/>
      <use x="196.916016" xlink:href="#DejaVuSans-32"/>
      <use x="228.703125" xlink:href="#DejaVuSans-87"/>
      <use x="325.330078" xlink:href="#DejaVuSans-105"/>
      <use x="353.113281" xlink:href="#DejaVuSans-110"/>
      <use x="416.492188" xlink:href="#DejaVuSans-32"/>
      <use x="448.279297" xlink:href="#DejaVuSans-82"/>
      <use x="515.511719" xlink:href="#DejaVuSans-97"/>
      <use x="576.791016" xlink:href="#DejaVuSans-116"/>
      <use x="616" xlink:href="#DejaVuSans-101"/>
     </g>
    </g>
   </g>
   <g id="line2d_41">
    <path clip-path="url(#pa107b2d174)" d="M 57.6 244.8 
L 62.208 244.8 
L 66.816 244.8 
L 71.424 244.8 
L 76.032 244.8 
L 80.64 244.8 
L 85.248 244.8 
L 89.856 244.8 
L 94.464 244.8 
L 99.072 244.8 
L 103.68 244.8 
L 108.288 244.8 
L 112.896 244.8 
L 117.504 244.8 
L 122.112 244.8 
L 126.72 244.8 
L 131.328 244.8 
L 135.936 244.8 
L 140.544 244.8 
L 145.152 244.8 
L 149.76 244.8 
L 154.368 244.8 
L 158.976 244.8 
L 163.584 244.8 
L 168.192 244.8 
L 172.8 244.8 
L 177.408 244.8 
L 182.016 244.8 
L 186.624 244.8 
L 191.232 244.8 
L 195.84 244.8 
L 200.448 244.8 
L 205.056 244.8 
L 209.664 244.8 
L 214.272 244.8 
L 218.88 244.8 
L 223.488 244.8 
L 228.096 244.8 
L 232.704 244.8 
L 237.312 244.8 
L 241.92 244.8 
L 246.528 244.8 
L 251.136 244.8 
L 255.744 244.8 
L 260.352 244.8 
L 264.96 244.8 
L 269.568 244.8 
L 274.176 244.8 
L 278.784 244.8 
L 283.392 244.8 
L 288 244.8 
L 292.608 244.8 
L 297.216 244.8 
L 301.824 244.8 
L 306.432 244.8 
L 311.04 244.8 
L 315.648 244.8 
L 320.256 244.8 
L 324.864 244.8 
L 329.472 244.8 
L 334.08 244.8 
L 338.688 244.8 
L 343.296 244.8 
L 347.904 244.8 
L 352.512 244.8 
L 357.12 244.8 
L 361.728 244.8 
L 366.336 244.8 
L 370.944 244.8 
L 375.552 244.8 
L 380.16 244.8 
L 384.768 244.8 
L 389.376 244.8 
L 393.984 244.8 
L 398.592 244.8 
L 403.2 244.8 
L 407.808 244.8 
L 412.416 244.8 
L 417.024 244.8 
L 421.632 244.8 
L 426.24 244.8 
L 430.848 244.8 
L 435.456 244.8 
L 440.064 244.8 
L 444.672 244.8 
L 449.28 244.8 
L 453.888 244.8 
L 458.496 244.8 
L 463.104 244.8 
L 467.712 244.8 
L 472.32 244.8 
L 476.928 244.8 
L 481.536 244.8 
L 486.144 244.8 
L 490.752 244.8 
L 495.36 244.8 
L 499.968 244.8 
L 504.576 244.8 
L 509.184 244.8 
L 513.792 244.8 
L 518.4 244.8 
" style="fill:none;stroke:#00bfff;stroke-linecap:square;stroke-width:1.5;"/>
   </g>
   <g id="line2d_42">
    <path clip-path="url(#pa107b2d174)" d="M 57.6 244.8 
L 62.208 244.8 
L 66.816 244.8 
L 71.424 244.8 
L 76.032 244.8 
L 80.64 244.8 
L 85.248 244.8 
L 89.856 244.8 
L 94.464 244.8 
L 99.072 244.8 
L 103.68 244.8 
L 108.288 244.8 
L 112.896 244.8 
L 117.504 244.8 
L 122.112 244.8 
L 126.72 244.8 
L 131.328 244.8 
L 135.936 244.8 
L 140.544 244.8 
L 145.152 244.8 
L 149.76 244.8 
L 154.368 244.8 
L 158.976 244.8 
L 163.584 244.8 
L 168.192 244.8 
L 172.8 244.8 
L 177.408 244.8 
L 182.016 244.8 
L 186.624 244.8 
L 191.232 244.8 
L 195.84 244.8 
L 200.448 244.8 
L 205.056 244.8 
L 209.664 244.8 
L 214.272 244.8 
L 218.88 244.8 
L 223.488 244.8 
L 228.096 244.8 
L 232.704 244.8 
L 237.312 244.8 
L 241.92 244.8 
L 246.528 244.8 
L 251.136 244.8 
L 255.744 244.8 
L 260.352 244.8 
L 264.96 244.8 
L 269.568 244.8 
L 274.176 244.8 
L 278.784 244.8 
L 283.392 244.8 
L 288 244.8 
L 292.608 244.8 
L 297.216 244.8 
L 301.824 244.8 
L 306.432 244.8 
L 311.04 244.8 
L 315.648 244.8 
L 320.256 244.8 
L 324.864 244.8 
L 329.472 244.8 
L 334.08 244.8 
L 338.688 244.8 
L 343.296 244.8 
L 347.904 244.8 
L 352.512 244.8 
L 357.12 244.8 
L 361.728 244.8 
L 366.336 244.8 
L 370.944 244.8 
L 375.552 244.8 
L 380.16 244.8 
L 384.768 244.8 
L 389.376 244.8 
L 393.984 244.8 
L 398.592 244.8 
L 403.2 244.8 
L 407.808 244.8 
L 412.416 244.8 
L 417.024 244.8 
L 421.632 244.8 
L 426.24 244.8 
L 430.848 244.8 
L 435.456 244.8 
L 440.064 244.8 
L 444.672 244.8 
L 449.28 244.8 
L 453.888 244.8 
L 458.496 244.8 
L 463.104 244.8 
L 467.712 244.8 
L 472.32 244.8 
L 476.928 244.8 
L 481.536 244.8 
L 486.144 244.8 
L 490.752 244.8 
L 495.36 244.8 
L 499.968 244.8 
L 504.576 244.8 
L 509.184 244.8 
L 513.792 244.8 
L 518.4 244.8 
" style="fill:none;stroke:#008000;stroke-linecap:square;stroke-width:1.5;"/>
   </g>
   <g id="line2d_43">
    <path clip-path="url(#pa107b2d174)" d="M 57.6 244.8 
L 62.208 244.8 
L 66.816 244.8 
L 71.424 244.8 
L 76.032 244.8 
L 80.64 244.8 
L 85.248 244.8 
L 89.856 244.8 
L 94.464 244.8 
L 99.072 244.8 
L 103.68 244.8 
L 108.288 244.8 
L 112.896 244.8 
L 117.504 244.8 
L 122.112 244.8 
L 126.72 244.8 
L 131.328 244.8 
L 135.936 244.8 
L 140.544 244.8 
L 145.152 244.8 
L 149.76 244.8 
L 154.368 244.8 
L 158.976 244.8 
L 163.584 244.8 
L 168.192 244.8 
L 172.8 244.8 
L 177.408 244.8 
L 182.016 244.8 
L 186.624 244.8 
L 191.232 244.8 
L 195.84 244.8 
L 200.448 244.8 
L 205.056 244.8 
L 209.664 244.8 
L 214.272 244.8 
L 218.88 244.8 
L 223.488 244.8 
L 228.096 244.8 
L 232.704 244.8 
L 237.312 244.8 
L 241.92 244.8 
L 246.528 244.8 
L 251.136 244.8 
L 255.744 244.8 
L 260.352 244.8 
L 264.96 244.8 
L 269.568 244.8 
L 274.176 244.8 
L 278.784 244.8 
L 283.392 244.8 
L 288 244.8 
L 292.608 244.8 
L 297.216 244.8 
L 301.824 244.8 
L 306.432 244.8 
L 311.04 244.8 
L 315.648 244.8 
L 320.256 244.8 
L 324.864 244.8 
L 329.472 244.8 
L 334.08 244.8 
L 338.688 244.8 
L 343.296 244.8 
L 347.904 244.8 
L 352.512 244.8 
L 357.12 244.8 
L 361.728 244.8 
L 366.336 244.8 
L 370.944 244.8 
L 375.552 244.8 
L 380.16 244.8 
L 384.768 244.8 
L 389.376 244.8 
L 393.984 244.8 
L 398.592 244.8 
L 403.2 244.8 
L 407.808 244.8 
L 412.416 244.8 
L 417.024 244.8 
L 421.632 244.8 
L 426.24 244.8 
L 430.848 244.8 
L 435.456 244.8 
L 440.064 244.8 
L 444.672 244.8 
L 449.28 244.8 
L 453.888 244.8 
L 458.496 244.8 
L 463.104 244.8 
L 467.712 244.8 
L 472.32 244.8 
L 476.928 244.8 
L 481.536 243.675 
L 486.144 244.8 
L 490.752 244.8 
L 495.36 244.8 
L 499.968 244.8 
L 504.576 244.8 
L 509.184 244.8 
L 513.792 244.8 
L 518.4 244.8 
" style="fill:none;stroke:#ff0000;stroke-linecap:square;stroke-width:1.5;"/>
   </g>
   <g id="line2d_44">
    <path clip-path="url(#pa107b2d174)" d="M 57.6 244.8 
L 62.208 244.8 
L 66.816 244.8 
L 71.424 244.8 
L 76.032 244.8 
L 80.64 244.8 
L 85.248 244.8 
L 89.856 244.8 
L 94.464 244.8 
L 99.072 244.8 
L 103.68 244.8 
L 108.288 244.8 
L 112.896 244.8 
L 117.504 244.8 
L 122.112 244.8 
L 126.72 244.8 
L 131.328 244.8 
L 135.936 244.8 
L 140.544 244.8 
L 145.152 244.8 
L 149.76 244.8 
L 154.368 244.8 
L 158.976 242.55 
L 163.584 242.55 
L 168.192 241.425 
L 172.8 239.175 
L 177.408 243.675 
L 182.016 238.05 
L 186.624 242.55 
L 191.232 240.3 
L 195.84 238.05 
L 200.448 230.175001 
L 205.056 241.425 
L 209.664 232.425001 
L 214.272 232.425 
L 218.88 233.55 
L 223.488 227.925 
L 228.096 230.174999 
L 232.704 232.425001 
L 237.312 231.3 
L 241.92 226.800001 
L 246.528 229.050001 
L 251.136 218.924999 
L 255.744 226.800001 
L 260.352 221.175 
L 264.96 231.3 
L 269.568 218.925001 
L 274.176 226.800001 
L 278.784 221.175 
L 283.392 224.55 
L 288 220.049999 
L 292.608 233.55 
L 297.216 224.55 
L 301.824 220.050001 
L 306.432 225.674999 
L 311.04 206.550001 
L 315.648 211.05 
L 320.256 204.3 
L 324.864 212.175002 
L 329.472 217.8 
L 334.08 221.175 
L 338.688 213.299998 
L 343.296 214.425 
L 347.904 217.8 
L 352.512 215.550002 
L 357.12 217.8 
L 361.728 205.425002 
L 366.336 191.925002 
L 370.944 193.050001 
L 375.552 176.174998 
L 380.16 194.175 
L 384.768 218.924999 
L 389.376 212.175002 
L 393.984 200.925 
L 398.592 194.175 
L 403.2 195.300002 
L 407.808 182.925004 
L 412.416 208.799999 
L 417.024 188.550002 
L 421.632 169.425004 
L 426.24 175.049996 
L 430.848 162.675004 
L 435.456 164.924996 
L 440.064 187.425 
L 444.672 181.799996 
L 449.28 184.05 
L 453.888 175.050002 
L 458.496 160.425 
L 463.104 185.175002 
L 467.712 184.05 
L 472.32 167.175 
L 476.928 178.425002 
L 481.536 173.925 
L 486.144 160.425 
L 490.752 168.299996 
L 495.36 163.8 
L 499.968 151.424996 
L 504.576 160.425 
L 509.184 146.925 
L 513.792 141.299996 
L 518.4 159.300004 
" style="fill:none;stroke:#a52a2a;stroke-linecap:square;stroke-width:1.5;"/>
   </g>
   <g id="line2d_45">
    <path clip-path="url(#pa107b2d174)" d="M 57.6 244.8 
L 62.208 244.8 
L 66.816 244.8 
L 71.424 244.8 
L 76.032 244.8 
L 80.64 244.8 
L 85.248 244.8 
L 89.856 244.8 
L 94.464 244.8 
L 99.072 243.675 
L 103.68 244.8 
L 108.288 244.8 
L 112.896 244.8 
L 117.504 244.8 
L 122.112 242.55 
L 126.72 242.55 
L 131.328 242.55 
L 135.936 241.425 
L 140.544 241.425 
L 145.152 222.3 
L 149.76 220.05 
L 154.368 213.3 
L 158.976 208.8 
L 163.584 206.55 
L 168.192 202.05 
L 172.8 194.175 
L 177.408 190.8 
L 182.016 186.3 
L 186.624 173.925 
L 191.232 190.8 
L 195.84 168.3 
L 200.448 149.175 
L 205.056 175.05 
L 209.664 158.175 
L 214.272 151.425 
L 218.88 142.425 
L 223.488 151.425 
L 228.096 146.925 
L 232.704 176.175 
L 237.312 141.3 
L 241.92 128.925 
L 246.528 136.8 
L 251.136 133.425 
L 255.744 127.8 
L 260.352 122.175 
L 264.96 118.8 
L 269.568 123.3 
L 274.176 136.8 
L 278.784 130.05 
L 283.392 103.05 
L 288 108.675 
L 292.608 125.55 
L 297.216 108.675 
L 301.824 100.8 
L 306.432 105.3 
L 311.04 85.05 
L 315.648 69.3 
L 320.256 96.3 
L 324.864 88.425 
L 329.472 73.8 
L 334.08 92.925 
L 338.688 86.175 
L 343.296 81.675 
L 347.904 109.8 
L 352.512 81.675 
L 357.12 81.675 
L 361.728 90.675 
L 366.336 98.55 
L 370.944 77.175 
L 375.552 65.925 
L 380.16 61.425 
L 384.768 51.3 
L 389.376 68.175 
L 393.984 49.05 
L 398.592 56.925 
L 403.2 40.05 
L 407.808 45.675 
L 412.416 43.425 
L 417.024 37.8 
L 421.632 40.05 
L 426.24 35.55 
L 430.848 36.675 
L 435.456 55.8 
L 440.064 64.8 
L 444.672 42.3 
L 449.28 35.55 
L 453.888 37.8 
L 458.496 41.175 
L 463.104 41.175 
L 467.712 32.175 
L 472.32 38.925 
L 476.928 44.55 
L 481.536 37.8 
L 486.144 37.8 
L 490.752 29.925 
L 495.36 32.175 
L 499.968 37.8 
L 504.576 36.675 
L 509.184 32.175 
L 513.792 32.175 
L 518.4 34.425 
" style="fill:none;stroke:#800080;stroke-linecap:square;stroke-width:1.5;"/>
   </g>
   <g id="patch_3">
    <path d="M 57.6 244.8 
L 57.6 28.8 
" style="fill:none;stroke:#000000;stroke-linecap:square;stroke-linejoin:miter;stroke-width:0.8;"/>
   </g>
   <g id="patch_4">
    <path d="M 518.4 244.8 
L 518.4 28.8 
" style="fill:none;stroke:#000000;stroke-linecap:square;stroke-linejoin:miter;stroke-width:0.8;"/>
   </g>
   <g id="patch_5">
    <path d="M 57.6 244.8 
L 518.4 244.8 
" style="fill:none;stroke:#000000;stroke-linecap:square;stroke-linejoin:miter;stroke-width:0.8;"/>
   </g>
   <g id="patch_6">
    <path d="M 57.6 28.8 
L 518.4 28.8 
" style="fill:none;stroke:#000000;stroke-linecap:square;stroke-linejoin:miter;stroke-width:0.8;"/>
   </g>
   <g id="text_18">
    <!-- 27m_vs_30m -->
    <defs>
     <path d="M 52 44.1875 
Q 55.375 50.25 60.0625 53.125 
Q 64.75 56 71.09375 56 
Q 79.640625 56 84.28125 50.015625 
Q 88.921875 44.046875 88.921875 33.015625 
L 88.921875 0 
L 79.890625 0 
L 79.890625 32.71875 
Q 79.890625 40.578125 77.09375 44.375 
Q 74.3125 48.1875 68.609375 48.1875 
Q 61.625 48.1875 57.5625 43.546875 
Q 53.515625 38.921875 53.515625 30.90625 
L 53.515625 0 
L 44.484375 0 
L 44.484375 32.71875 
Q 44.484375 40.625 41.703125 44.40625 
Q 38.921875 48.1875 33.109375 48.1875 
Q 26.21875 48.1875 22.15625 43.53125 
Q 18.109375 38.875 18.109375 30.90625 
L 18.109375 0 
L 9.078125 0 
L 9.078125 54.6875 
L 18.109375 54.6875 
L 18.109375 46.1875 
Q 21.1875 51.21875 25.484375 53.609375 
Q 29.78125 56 35.6875 56 
Q 41.65625 56 45.828125 52.96875 
Q 50 49.953125 52 44.1875 
z
" id="DejaVuSans-109"/>
     <path d="M 50.984375 -16.609375 
L 50.984375 -23.578125 
L -0.984375 -23.578125 
L -0.984375 -16.609375 
z
" id="DejaVuSans-95"/>
     <path d="M 2.984375 54.6875 
L 12.5 54.6875 
L 29.59375 8.796875 
L 46.6875 54.6875 
L 56.203125 54.6875 
L 35.6875 0 
L 23.484375 0 
z
" id="DejaVuSans-118"/>
     <path d="M 40.578125 39.3125 
Q 47.65625 37.796875 51.625 33 
Q 55.609375 28.21875 55.609375 21.1875 
Q 55.609375 10.40625 48.1875 4.484375 
Q 40.765625 -1.421875 27.09375 -1.421875 
Q 22.515625 -1.421875 17.65625 -0.515625 
Q 12.796875 0.390625 7.625 2.203125 
L 7.625 11.71875 
Q 11.71875 9.328125 16.59375 8.109375 
Q 21.484375 6.890625 26.8125 6.890625 
Q 36.078125 6.890625 40.9375 10.546875 
Q 45.796875 14.203125 45.796875 21.1875 
Q 45.796875 27.640625 41.28125 31.265625 
Q 36.765625 34.90625 28.71875 34.90625 
L 20.21875 34.90625 
L 20.21875 43.015625 
L 29.109375 43.015625 
Q 36.375 43.015625 40.234375 45.921875 
Q 44.09375 48.828125 44.09375 54.296875 
Q 44.09375 59.90625 40.109375 62.90625 
Q 36.140625 65.921875 28.71875 65.921875 
Q 24.65625 65.921875 20.015625 65.03125 
Q 15.375 64.15625 9.8125 62.3125 
L 9.8125 71.09375 
Q 15.4375 72.65625 20.34375 73.4375 
Q 25.25 74.21875 29.59375 74.21875 
Q 40.828125 74.21875 47.359375 69.109375 
Q 53.90625 64.015625 53.90625 55.328125 
Q 53.90625 49.265625 50.4375 45.09375 
Q 46.96875 40.921875 40.578125 39.3125 
z
" id="DejaVuSans-51"/>
    </defs>
    <g transform="translate(248.364375 22.8)scale(0.12 -0.12)">
     <use xlink:href="#DejaVuSans-50"/>
     <use x="63.623047" xlink:href="#DejaVuSans-55"/>
     <use x="127.246094" xlink:href="#DejaVuSans-109"/>
     <use x="224.658203" xlink:href="#DejaVuSans-95"/>
     <use x="274.658203" xlink:href="#DejaVuSans-118"/>
     <use x="333.837891" xlink:href="#DejaVuSans-115"/>
     <use x="385.9375" xlink:href="#DejaVuSans-95"/>
     <use x="435.9375" xlink:href="#DejaVuSans-51"/>
     <use x="499.560547" xlink:href="#DejaVuSans-48"/>
     <use x="563.183594" xlink:href="#DejaVuSans-109"/>
    </g>
   </g>
   <g id="legend_1">
    <g id="patch_7">
     <path d="M 64.6 110.190625 
L 140.954688 110.190625 
Q 142.954688 110.190625 142.954688 108.190625 
L 142.954688 35.8 
Q 142.954688 33.8 140.954688 33.8 
L 64.6 33.8 
Q 62.6 33.8 62.6 35.8 
L 62.6 108.190625 
Q 62.6 110.190625 64.6 110.190625 
z
" style="fill:#ffffff;opacity:0.8;stroke:#cccccc;stroke-linejoin:miter;"/>
    </g>
    <g id="line2d_46">
     <path d="M 66.6 41.898438 
L 86.6 41.898438 
" style="fill:none;stroke:#00bfff;stroke-linecap:square;stroke-width:1.5;"/>
    </g>
    <g id="line2d_47"/>
    <g id="text_19">
     <!-- COMA -->
     <defs>
      <path d="M 64.40625 67.28125 
L 64.40625 56.890625 
Q 59.421875 61.53125 53.78125 63.8125 
Q 48.140625 66.109375 41.796875 66.109375 
Q 29.296875 66.109375 22.65625 58.46875 
Q 16.015625 50.828125 16.015625 36.375 
Q 16.015625 21.96875 22.65625 14.328125 
Q 29.296875 6.6875 41.796875 6.6875 
Q 48.140625 6.6875 53.78125 8.984375 
Q 59.421875 11.28125 64.40625 15.921875 
L 64.40625 5.609375 
Q 59.234375 2.09375 53.4375 0.328125 
Q 47.65625 -1.421875 41.21875 -1.421875 
Q 24.65625 -1.421875 15.125 8.703125 
Q 5.609375 18.84375 5.609375 36.375 
Q 5.609375 53.953125 15.125 64.078125 
Q 24.65625 74.21875 41.21875 74.21875 
Q 47.75 74.21875 53.53125 72.484375 
Q 59.328125 70.75 64.40625 67.28125 
z
" id="DejaVuSans-67"/>
      <path d="M 39.40625 66.21875 
Q 28.65625 66.21875 22.328125 58.203125 
Q 16.015625 50.203125 16.015625 36.375 
Q 16.015625 22.609375 22.328125 14.59375 
Q 28.65625 6.59375 39.40625 6.59375 
Q 50.140625 6.59375 56.421875 14.59375 
Q 62.703125 22.609375 62.703125 36.375 
Q 62.703125 50.203125 56.421875 58.203125 
Q 50.140625 66.21875 39.40625 66.21875 
z
M 39.40625 74.21875 
Q 54.734375 74.21875 63.90625 63.9375 
Q 73.09375 53.65625 73.09375 36.375 
Q 73.09375 19.140625 63.90625 8.859375 
Q 54.734375 -1.421875 39.40625 -1.421875 
Q 24.03125 -1.421875 14.8125 8.828125 
Q 5.609375 19.09375 5.609375 36.375 
Q 5.609375 53.65625 14.8125 63.9375 
Q 24.03125 74.21875 39.40625 74.21875 
z
" id="DejaVuSans-79"/>
      <path d="M 34.1875 63.1875 
L 20.796875 26.90625 
L 47.609375 26.90625 
z
M 28.609375 72.90625 
L 39.796875 72.90625 
L 67.578125 0 
L 57.328125 0 
L 50.6875 18.703125 
L 17.828125 18.703125 
L 11.1875 0 
L 0.78125 0 
z
" id="DejaVuSans-65"/>
     </defs>
     <g transform="translate(94.6 45.398438)scale(0.1 -0.1)">
      <use xlink:href="#DejaVuSans-67"/>
      <use x="69.824219" xlink:href="#DejaVuSans-79"/>
      <use x="148.535156" xlink:href="#DejaVuSans-77"/>
      <use x="234.814453" xlink:href="#DejaVuSans-65"/>
     </g>
    </g>
    <g id="line2d_48">
     <path d="M 66.6 56.576562 
L 86.6 56.576562 
" style="fill:none;stroke:#008000;stroke-linecap:square;stroke-width:1.5;"/>
    </g>
    <g id="line2d_49"/>
    <g id="text_20">
     <!-- IQL -->
     <defs>
      <path d="M 9.8125 72.90625 
L 19.671875 72.90625 
L 19.671875 0 
L 9.8125 0 
z
" id="DejaVuSans-73"/>
      <path d="M 39.40625 66.21875 
Q 28.65625 66.21875 22.328125 58.203125 
Q 16.015625 50.203125 16.015625 36.375 
Q 16.015625 22.609375 22.328125 14.59375 
Q 28.65625 6.59375 39.40625 6.59375 
Q 50.140625 6.59375 56.421875 14.59375 
Q 62.703125 22.609375 62.703125 36.375 
Q 62.703125 50.203125 56.421875 58.203125 
Q 50.140625 66.21875 39.40625 66.21875 
z
M 53.21875 1.3125 
L 66.21875 -12.890625 
L 54.296875 -12.890625 
L 43.5 -1.21875 
Q 41.890625 -1.3125 41.03125 -1.359375 
Q 40.1875 -1.421875 39.40625 -1.421875 
Q 24.03125 -1.421875 14.8125 8.859375 
Q 5.609375 19.140625 5.609375 36.375 
Q 5.609375 53.65625 14.8125 63.9375 
Q 24.03125 74.21875 39.40625 74.21875 
Q 54.734375 74.21875 63.90625 63.9375 
Q 73.09375 53.65625 73.09375 36.375 
Q 73.09375 23.6875 67.984375 14.640625 
Q 62.890625 5.609375 53.21875 1.3125 
z
" id="DejaVuSans-81"/>
      <path d="M 9.8125 72.90625 
L 19.671875 72.90625 
L 19.671875 8.296875 
L 55.171875 8.296875 
L 55.171875 0 
L 9.8125 0 
z
" id="DejaVuSans-76"/>
     </defs>
     <g transform="translate(94.6 60.076562)scale(0.1 -0.1)">
      <use xlink:href="#DejaVuSans-73"/>
      <use x="29.492188" xlink:href="#DejaVuSans-81"/>
      <use x="108.203125" xlink:href="#DejaVuSans-76"/>
     </g>
    </g>
    <g id="line2d_50">
     <path d="M 66.6 71.254687 
L 86.6 71.254687 
" style="fill:none;stroke:#ff0000;stroke-linecap:square;stroke-width:1.5;"/>
    </g>
    <g id="line2d_51"/>
    <g id="text_21">
     <!-- VDN -->
     <defs>
      <path d="M 28.609375 0 
L 0.78125 72.90625 
L 11.078125 72.90625 
L 34.1875 11.53125 
L 57.328125 72.90625 
L 67.578125 72.90625 
L 39.796875 0 
z
" id="DejaVuSans-86"/>
      <path d="M 19.671875 64.796875 
L 19.671875 8.109375 
L 31.59375 8.109375 
Q 46.6875 8.109375 53.6875 14.9375 
Q 60.6875 21.78125 60.6875 36.53125 
Q 60.6875 51.171875 53.6875 57.984375 
Q 46.6875 64.796875 31.59375 64.796875 
z
M 9.8125 72.90625 
L 30.078125 72.90625 
Q 51.265625 72.90625 61.171875 64.09375 
Q 71.09375 55.28125 71.09375 36.53125 
Q 71.09375 17.671875 61.125 8.828125 
Q 51.171875 0 30.078125 0 
L 9.8125 0 
z
" id="DejaVuSans-68"/>
      <path d="M 9.8125 72.90625 
L 23.09375 72.90625 
L 55.421875 11.921875 
L 55.421875 72.90625 
L 64.984375 72.90625 
L 64.984375 0 
L 51.703125 0 
L 19.390625 60.984375 
L 19.390625 0 
L 9.8125 0 
z
" id="DejaVuSans-78"/>
     </defs>
     <g transform="translate(94.6 74.754687)scale(0.1 -0.1)">
      <use xlink:href="#DejaVuSans-86"/>
      <use x="68.408203" xlink:href="#DejaVuSans-68"/>
      <use x="145.410156" xlink:href="#DejaVuSans-78"/>
     </g>
    </g>
    <g id="line2d_52">
     <path d="M 66.6 85.932813 
L 86.6 85.932813 
" style="fill:none;stroke:#a52a2a;stroke-linecap:square;stroke-width:1.5;"/>
    </g>
    <g id="line2d_53"/>
    <g id="text_22">
     <!-- QMIX -->
     <defs>
      <path d="M 6.296875 72.90625 
L 16.890625 72.90625 
L 35.015625 45.796875 
L 53.21875 72.90625 
L 63.8125 72.90625 
L 40.375 37.890625 
L 65.375 0 
L 54.78125 0 
L 34.28125 31 
L 13.625 0 
L 2.984375 0 
L 29 38.921875 
z
" id="DejaVuSans-88"/>
     </defs>
     <g transform="translate(94.6 89.432813)scale(0.1 -0.1)">
      <use xlink:href="#DejaVuSans-81"/>
      <use x="78.710938" xlink:href="#DejaVuSans-77"/>
      <use x="164.990234" xlink:href="#DejaVuSans-73"/>
      <use x="194.482422" xlink:href="#DejaVuSans-88"/>
     </g>
    </g>
    <g id="line2d_54">
     <path d="M 66.6 100.610938 
L 86.6 100.610938 
" style="fill:none;stroke:#800080;stroke-linecap:square;stroke-width:1.5;"/>
    </g>
    <g id="line2d_55"/>
    <g id="text_23">
     <!-- QMIX-ME -->
     <defs>
      <path d="M 4.890625 31.390625 
L 31.203125 31.390625 
L 31.203125 23.390625 
L 4.890625 23.390625 
z
" id="DejaVuSans-45"/>
      <path d="M 9.8125 72.90625 
L 55.90625 72.90625 
L 55.90625 64.59375 
L 19.671875 64.59375 
L 19.671875 43.015625 
L 54.390625 43.015625 
L 54.390625 34.71875 
L 19.671875 34.71875 
L 19.671875 8.296875 
L 56.78125 8.296875 
L 56.78125 0 
L 9.8125 0 
z
" id="DejaVuSans-69"/>
     </defs>
     <g transform="translate(94.6 104.110938)scale(0.1 -0.1)">
      <use xlink:href="#DejaVuSans-81"/>
      <use x="78.710938" xlink:href="#DejaVuSans-77"/>
      <use x="164.990234" xlink:href="#DejaVuSans-73"/>
      <use x="194.482422" xlink:href="#DejaVuSans-88"/>
      <use x="257.988281" xlink:href="#DejaVuSans-45"/>
      <use x="294.072266" xlink:href="#DejaVuSans-77"/>
      <use x="380.351562" xlink:href="#DejaVuSans-69"/>
     </g>
    </g>
   </g>
  </g>
 </g>
 <defs>
  <clipPath id="pa107b2d174">
   <rect height="216" width="460.8" x="57.6" y="28.8"/>
  </clipPath>
 </defs>
</svg>
